####
#
# OBJ File Generated by Meshlab
#
####
# Object HillCorner1.obj
#
# Vertices: 193
# Faces: 348
#
####
vn 0.671834 0.325726 0.106407
v 0.800690 0.132365 -0.873183
vn 1.419456 0.688197 0.224819
v 0.794044 0.132365 -0.831221
vn 0.707300 0.342921 0.112025
v 0.811295 0.095585 -0.827554
vn 0.606070 0.325728 0.308808
v 0.722313 0.132365 -0.631963
vn 1.280508 0.688199 0.652452
v 0.703025 0.132365 -0.594108
vn 0.638064 0.342922 0.325110
v 0.718299 0.095585 -0.585290
vn 0.480980 0.325727 0.480980
v 0.573231 0.132365 -0.426769
vn 1.016217 0.688197 1.016217
v 0.543189 0.132365 -0.396727
vn 0.506371 0.342922 0.506371
v 0.554990 0.095585 -0.383621
vn 0.308808 0.325727 0.606070
v 0.368037 0.132365 -0.277687
vn 0.652452 0.688197 1.280508
v 0.330182 0.132365 -0.258399
vn 0.325110 0.342922 0.638065
v 0.337356 0.095585 -0.242287
vn 0.106408 0.325727 0.671834
v 0.126817 0.132365 -0.199310
vn 0.224819 0.688197 1.419454
v 0.084854 0.132365 -0.192664
vn 0.112025 0.342922 0.707301
v 0.086698 0.095585 -0.175124
vn 0.038557 0.376131 0.002021
v 0.994522 0.000000 -0.895472
vn 0.154867 1.510772 0.008116
v 1.000000 0.000000 -1.000000
vn 0.126933 1.238269 0.006652
v 0.959423 0.004159 -1.000000
vn 0.038134 0.376132 0.006040
v 0.978148 0.000000 -0.792088
vn 0.125542 1.238268 0.019884
v 0.954167 0.004159 -0.899713
vn 0.037294 0.376131 0.009993
v 0.951057 0.000000 -0.690983
vn 0.122776 1.238270 0.032898
v 0.938457 0.004159 -0.800525
vn 0.036045 0.376131 0.013836
v 0.913545 0.000000 -0.593263
vn 0.118665 1.238269 0.045551
v 0.912466 0.004159 -0.703522
vn 0.034401 0.376131 0.017528
v 0.866025 0.000000 -0.500000
vn 0.113253 1.238268 0.057705
v 0.876477 0.004159 -0.609767
vn 0.032381 0.376131 0.021028
v 0.809017 0.000000 -0.412215
vn 0.106601 1.238268 0.069227
v 0.830885 0.004159 -0.520288
vn 0.030005 0.376131 0.024298
v 0.743145 0.000000 -0.330869
vn 0.098781 1.238269 0.079991
v 0.776190 0.004159 -0.436065
vn 0.027301 0.376131 0.027301
v 0.669131 0.000000 -0.256855
vn 0.089878 1.238268 0.089878
v 0.712990 0.004159 -0.358021
vn 0.024298 0.376132 0.030005
v 0.587785 0.000000 -0.190983
vn 0.079991 1.238269 0.098781
v 0.641979 0.004159 -0.287010
vn 0.021028 0.376131 0.032381
v 0.500000 0.000000 -0.133975
vn 0.069227 1.238268 0.106601
v 0.563935 0.004159 -0.223810
vn 0.017528 0.376131 0.034401
v 0.406737 0.000000 -0.086455
vn 0.057705 1.238269 0.113253
v 0.479712 0.004159 -0.169115
vn 0.013836 0.376131 0.036045
v 0.309017 0.000000 -0.048943
vn 0.045551 1.238268 0.118665
v 0.390233 0.004159 -0.123523
vn 0.009993 0.376131 0.037294
v 0.207912 0.000000 -0.021852
vn 0.032898 1.238269 0.122776
v 0.296478 0.004159 -0.087534
vn 0.006040 0.376131 0.038134
v 0.104528 0.000000 -0.005478
vn 0.019884 1.238269 0.125542
v 0.199475 0.004159 -0.061543
vn 0.002021 0.376131 0.038557
v 0.000000 0.000000 -0.000000
vn 0.006652 1.238269 0.126933
v 0.100287 0.004159 -0.045833
vn 0.008673 1.614400 0.165489
v 0.000000 0.004159 -0.040577
vn 0.019415 1.170783 0.370462
v 0.096222 0.016465 -0.084509
vn 0.025621 1.545011 0.488876
v 0.000000 0.016465 -0.079466
vn 0.030972 1.054650 0.590977
v 0.092502 0.036404 -0.119898
vn 0.041399 1.409704 0.789932
v 0.000000 0.036404 -0.115050
vn 0.040842 0.897456 0.779320
v 0.089283 0.063149 -0.150527
vn 0.055301 1.215163 1.055206
v 0.000000 0.063149 -0.145848
vn 0.066728 0.970817 1.273255
v 0.000000 0.095585 -0.170580
vn 0.075215 0.688197 1.435179
v 0.000000 0.132365 -0.188217
vn 0.058033 1.170783 0.366403
v 0.191390 0.016465 -0.099582
vn 0.092576 1.054651 0.584502
v 0.183991 0.036404 -0.134388
vn 0.122080 0.897455 0.770781
v 0.177588 0.063149 -0.164513
vn 0.145517 0.708284 0.918759
v 0.172446 0.095585 -0.188705
vn 0.162280 0.496757 1.024596
v 0.168779 0.132365 -0.205956
vn 0.096014 1.170783 0.358330
v 0.284461 0.016465 -0.124520
vn 0.153166 1.054650 0.571623
v 0.273465 0.036404 -0.158362
vn 0.201980 0.897456 0.753799
v 0.263947 0.063149 -0.187653
vn 0.240756 0.708284 0.898515
v 0.256305 0.095585 -0.211175
vn 0.268491 0.496757 1.002020
v 0.250855 0.132365 -0.227948
vn 0.132944 1.170783 0.346331
v 0.374415 0.016465 -0.159050
vn 0.212078 1.054650 0.552482
v 0.359942 0.036404 -0.191558
vn 0.279667 0.897456 0.728556
v 0.347415 0.063149 -0.219693
vn 0.168417 1.170782 0.330537
v 0.460267 0.016465 -0.202794
vn 0.268666 1.054651 0.527287
v 0.442475 0.036404 -0.233611
vn 0.354289 0.897456 0.695332
v 0.427076 0.063149 -0.260283
vn 0.422307 0.708284 0.828824
v 0.414710 0.095585 -0.281701
vn 0.470955 0.496757 0.924301
v 0.405892 0.132365 -0.296975
vn 0.202045 1.170783 0.311122
v 0.541076 0.016465 -0.255272
vn 0.322311 1.054649 0.496315
v 0.520161 0.036404 -0.284060
vn 0.425031 0.897456 0.654490
v 0.502058 0.063149 -0.308977
vn 0.506629 0.708284 0.780141
v 0.487521 0.095585 -0.328985
vn 0.564991 0.496757 0.870010
v 0.477154 0.132365 -0.343253
vn 0.233459 1.170783 0.288298
v 0.615957 0.016465 -0.315910
vn 0.372424 1.054651 0.459906
v 0.592147 0.036404 -0.342354
vn 0.491115 0.897455 0.606477
v 0.571539 0.063149 -0.365241
vn 0.262316 1.170783 0.262316
v 0.684090 0.016465 -0.384043
vn 0.418457 1.054650 0.418457
v 0.657646 0.036404 -0.407853
vn 0.551819 0.897455 0.551819
v 0.634759 0.063149 -0.428461
vn 0.657759 0.708285 0.657759
v 0.616379 0.095585 -0.445010
vn 0.733529 0.496757 0.733529
v 0.603273 0.132365 -0.456811
vn 0.288298 1.170783 0.233459
v 0.744728 0.016465 -0.458924
vn 0.459905 1.054651 0.372424
v 0.715940 0.036404 -0.479839
vn 0.606476 0.897455 0.491115
v 0.691023 0.063149 -0.497942
vn 0.722910 0.708284 0.585401
v 0.671015 0.095585 -0.512479
vn 0.806187 0.496757 0.652837
v 0.656747 0.132365 -0.522846
vn 0.311122 1.170783 0.202045
v 0.797206 0.016465 -0.539733
vn 0.496316 1.054650 0.322311
v 0.766389 0.036404 -0.557525
vn 0.654489 0.897456 0.425031
v 0.739717 0.063149 -0.572924
vn 0.330537 1.170783 0.168417
v 0.840950 0.016465 -0.625585
vn 0.527287 1.054651 0.268666
v 0.808442 0.036404 -0.640058
vn 0.695332 0.897455 0.354289
v 0.780307 0.063149 -0.652585
vn 0.828825 0.708284 0.422307
v 0.757713 0.095585 -0.662644
vn 0.924301 0.496757 0.470954
v 0.741601 0.132365 -0.669818
vn 0.346331 1.170782 0.132944
v 0.875480 0.016465 -0.715539
vn 0.552482 1.054651 0.212078
v 0.841638 0.036404 -0.726535
vn 0.728557 0.897456 0.279667
v 0.812347 0.063149 -0.736053
vn 0.868426 0.708285 0.333358
v 0.788825 0.095585 -0.743695
vn 0.968467 0.496758 0.371760
v 0.772052 0.132365 -0.749145
vn 0.358330 1.170782 0.096014
v 0.900418 0.016465 -0.808610
vn 0.571624 1.054651 0.153166
v 0.865612 0.036404 -0.816009
vn 0.753799 0.897455 0.201980
v 0.835487 0.063149 -0.822412
vn 0.366403 1.170783 0.058033
v 0.915491 0.016465 -0.903778
vn 0.584502 1.054651 0.092576
v 0.880102 0.036404 -0.907498
vn 0.770782 0.897455 0.122080
v 0.849473 0.063149 -0.910717
vn 0.918758 0.708285 0.145517
v 0.824876 0.095585 -0.913302
vn 1.024597 0.496756 0.162280
v 0.807336 0.132365 -0.915146
vn 0.370462 1.170783 0.019415
v 0.920534 0.016465 -1.000000
vn 0.590977 1.054650 0.030972
v 0.884950 0.036404 -1.000000
vn 0.779320 0.897456 0.040843
v 0.854152 0.063149 -1.000000
vn 0.928936 0.708285 0.048684
v 0.829420 0.095585 -1.000000
vn 1.035947 0.496757 0.054292
v 0.811783 0.132365 -1.000000
vn 0.000000 -1.518436 0.000000
v 0.000000 0.000000 0.000000
vn 0.000000 -0.104720 0.000000
v 0.000000 0.000000 -1.000000
vn 0.148788 1.451482 0.016764
v 0.039560 1.995841 -0.990971
vn 0.148788 1.451482 0.016764
v 0.040577 1.995841 -1.000000
vn 0.022761 0.222046 0.002565
v 0.000000 2.000000 -1.000000
vn 0.141327 1.451482 0.049453
v 0.036559 1.995841 -0.982394
vn 0.126780 1.451481 0.079661
v 0.031724 1.995841 -0.974701
vn 0.105875 1.451481 0.105875
v 0.025299 1.995841 -0.968276
vn 0.079661 1.451481 0.126780
v 0.017606 1.995841 -0.963441
vn 0.049453 1.451481 0.141327
v 0.009029 1.995841 -0.960440
vn 0.016764 1.451483 0.148788
v 0.000000 1.995841 -0.959423
vn 0.049728 1.394839 0.441358
v 0.000000 1.983535 -0.920534
vn 0.042490 1.191819 0.377118
v 0.017683 1.983535 -0.922526
vn 0.081006 1.283033 0.718954
v 0.000000 1.963596 -0.884950
vn 0.059305 0.939325 0.526355
v 0.025601 1.963596 -0.887835
vn 0.109493 1.119077 0.971770
v 0.000000 1.936851 -0.854152
vn 0.069816 0.713557 0.619630
v 0.032454 1.936851 -0.857809
vn 0.153875 0.654869 1.365675
v 0.000000 1.867635 -0.811783
vn 0.098684 0.419983 0.875839
v 0.029332 1.867635 -0.815088
vn 0.064982 0.276552 0.576727
v 0.000000 1.904415 -0.829420
vn 0.132916 0.565671 1.179660
v 0.037958 1.904415 -0.833697
vn 0.153871 0.654870 1.365674
v 0.041882 1.867635 -0.816502
vn 0.363969 0.525110 1.040158
v 0.057787 1.867635 -0.822068
vn 0.313332 0.452056 0.895453
v 0.074012 1.904415 -0.846313
vn 0.829712 0.743117 1.320478
v 0.110228 1.867635 -0.848371
vn 0.272117 0.243716 0.433071
v 0.106355 1.904415 -0.866635
vn 0.407054 0.364571 0.647823
v 0.085222 1.867635 -0.832658
vn 0.731182 0.654870 1.163664
v 0.081664 1.867635 -0.830423
vn 0.971787 0.654872 0.971789
v 0.147154 1.867635 -0.882649
vn 0.310738 0.209401 0.310738
v 0.133365 1.904415 -0.893645
vn 0.722878 0.487136 0.722880
v 0.132252 1.867635 -0.867748
vn 0.971788 0.654870 0.971788
v 0.117351 1.867635 -0.852846
vn 1.080896 0.608289 0.679168
v 0.151629 1.867635 -0.889772
vn 0.647823 0.364572 0.407054
v 0.167342 1.867635 -0.914778
vn 1.158939 0.652210 0.728210
v 0.153687 1.904415 -0.925988
vn 1.163666 0.654870 0.731180
v 0.169577 1.867635 -0.918336
vn 0.895452 0.452057 0.313332
v 0.177932 1.867635 -0.942213
vn 1.040158 0.525110 0.363967
v 0.166303 1.904415 -0.962042
vn 1.365674 0.654870 0.153874
v 0.188217 1.867635 -1.000000
vn 0.576726 0.276553 0.064981
v 0.170580 1.904415 -1.000000
vn 0.875839 0.419983 0.098683
v 0.184912 1.867635 -0.970668
vn 1.365675 0.654871 0.153875
v 0.183498 1.867635 -0.958118
vn 0.431397 0.989645 1.232864
v 0.063281 1.936851 -0.868595
vn 0.694919 0.989645 1.105959
v 0.090935 1.936851 -0.885971
vn 0.923596 0.989645 0.923595
v 0.114029 1.936851 -0.909065
vn 1.105958 0.989645 0.694920
v 0.131405 1.936851 -0.936719
vn 1.232864 0.989645 0.431398
v 0.142191 1.936851 -0.967546
vn 1.297949 0.989645 0.146244
v 0.145848 1.936851 -1.000000
vn 0.359776 1.246545 1.028181
v 0.049918 1.963596 -0.896344
vn 0.579547 1.246546 0.922344
v 0.071732 1.963596 -0.910050
vn 0.770258 1.246545 0.770258
v 0.089950 1.963596 -0.928268
vn 0.922344 1.246546 0.579547
v 0.103656 1.963596 -0.950082
vn 1.028180 1.246546 0.359776
v 0.112165 1.963596 -0.974399
vn 1.082460 1.246546 0.121964
v 0.115050 1.963596 -1.000000
vn 0.270700 1.453463 0.773614
v 0.034479 1.983535 -0.928404
vn 0.436058 1.453465 0.693983
v 0.049546 1.983535 -0.937871
vn 0.579551 1.453465 0.579552
v 0.062129 1.983535 -0.950454
vn 0.693983 1.453464 0.436058
v 0.071596 1.983535 -0.965521
vn 0.773616 1.453464 0.270700
v 0.077474 1.983535 -0.982317
vn 0.814456 1.453464 0.091767
v 0.079466 1.983535 -1.000000
vn 0.002270 0.015564 0.043313
v 0.000000 1.867635 -0.811783
vn 0.076507 0.524583 1.459818
v 0.000000 0.132365 -0.188217
vn -0.102151 0.000000 0.000000
v 0.000000 0.000000 0.000000
vn -3.035107 0.000000 0.000000
v 0.000000 0.004159 -0.040577
vn -2.817254 0.000000 0.000000
v 0.000000 0.016465 -0.079466
vn -2.589721 0.000000 0.000000
v 0.000000 0.036404 -0.115050
vn -2.352735 0.000000 0.000000
v 0.000000 0.063149 -0.145848
vn -2.107492 0.000000 0.000000
v 0.000000 0.095585 -0.170580
vn -1.856295 0.000000 0.000000
v 0.000000 0.132365 -0.188217
vn -0.410023 0.000000 0.000000
v 0.000000 2.000000 -1.000000
vn -2.528684 0.000000 0.000000
v 0.000000 1.867635 -0.811783
vn -2.937291 0.000000 0.000000
v 0.000000 1.936851 -0.854152
vn -0.102151 0.000000 0.000000
v 0.000000 1.963596 -0.884950
vn -0.102151 0.000000 0.000000
v 0.000000 1.904415 -0.829420
vn -0.204302 0.000000 0.000000
v 0.000000 1.983535 -0.920534
vn -0.408606 0.000000 0.000000
v 0.000000 1.995841 -0.959423
# 193 vertices, 0 vertices normals

f 1//1 2//2 3//3
f 4//4 5//5 6//6
f 7//7 8//8 9//9
f 10//10 11//11 12//12
f 13//13 14//14 15//15
f 16//16 17//17 18//18
f 19//19 16//16 20//20
f 21//21 19//19 22//22
f 23//23 21//21 24//24
f 25//25 23//23 26//26
f 27//27 25//25 28//28
f 29//29 27//27 30//30
f 31//31 29//29 32//32
f 33//33 31//31 34//34
f 35//35 33//33 36//36
f 37//37 35//35 38//38
f 39//39 37//37 40//40
f 41//41 39//39 42//42
f 43//43 41//41 44//44
f 45//45 43//43 46//46
f 45//45 46//46 47//47
f 47//47 46//46 48//48
f 47//47 48//48 49//49
f 49//49 48//48 50//50
f 49//49 50//50 51//51
f 51//51 50//50 52//52
f 51//51 52//52 53//53
f 53//53 52//52 15//15
f 53//53 15//15 54//54
f 54//54 15//15 14//14
f 54//54 14//14 55//55
f 43//43 44//44 46//46
f 46//46 44//44 56//56
f 46//46 56//56 48//48
f 48//48 56//56 57//57
f 48//48 57//57 50//50
f 50//50 57//57 58//58
f 50//50 58//58 52//52
f 52//52 58//58 59//59
f 52//52 59//59 15//15
f 15//15 59//59 60//60
f 15//15 60//60 13//13
f 41//41 42//42 44//44
f 44//44 42//42 61//61
f 44//44 61//61 56//56
f 56//56 61//61 62//62
f 56//56 62//62 57//57
f 57//57 62//62 63//63
f 57//57 63//63 58//58
f 58//58 63//63 64//64
f 58//58 64//64 59//59
f 59//59 64//64 65//65
f 59//59 65//65 60//60
f 39//39 40//40 42//42
f 42//42 40//40 66//66
f 42//42 66//66 61//61
f 61//61 66//66 67//67
f 61//61 67//67 62//62
f 62//62 67//67 68//68
f 62//62 68//68 63//63
f 63//63 68//68 12//12
f 63//63 12//12 64//64
f 64//64 12//12 11//11
f 64//64 11//11 65//65
f 37//37 38//38 40//40
f 40//40 38//38 69//69
f 40//40 69//69 66//66
f 66//66 69//69 70//70
f 66//66 70//70 67//67
f 67//67 70//70 71//71
f 67//67 71//71 68//68
f 68//68 71//71 72//72
f 68//68 72//72 12//12
f 12//12 72//72 73//73
f 12//12 73//73 10//10
f 35//35 36//36 38//38
f 38//38 36//36 74//74
f 38//38 74//74 69//69
f 69//69 74//74 75//75
f 69//69 75//75 70//70
f 70//70 75//75 76//76
f 70//70 76//76 71//71
f 71//71 76//76 77//77
f 71//71 77//77 72//72
f 72//72 77//77 78//78
f 72//72 78//78 73//73
f 33//33 34//34 36//36
f 36//36 34//34 79//79
f 36//36 79//79 74//74
f 74//74 79//79 80//80
f 74//74 80//80 75//75
f 75//75 80//80 81//81
f 75//75 81//81 76//76
f 76//76 81//81 9//9
f 76//76 9//9 77//77
f 77//77 9//9 8//8
f 77//77 8//8 78//78
f 31//31 32//32 34//34
f 34//34 32//32 82//82
f 34//34 82//82 79//79
f 79//79 82//82 83//83
f 79//79 83//83 80//80
f 80//80 83//83 84//84
f 80//80 84//84 81//81
f 81//81 84//84 85//85
f 81//81 85//85 9//9
f 9//9 85//85 86//86
f 9//9 86//86 7//7
f 29//29 30//30 32//32
f 32//32 30//30 87//87
f 32//32 87//87 82//82
f 82//82 87//87 88//88
f 82//82 88//88 83//83
f 83//83 88//88 89//89
f 83//83 89//89 84//84
f 84//84 89//89 90//90
f 84//84 90//90 85//85
f 85//85 90//90 91//91
f 85//85 91//91 86//86
f 27//27 28//28 30//30
f 30//30 28//28 92//92
f 30//30 92//92 87//87
f 87//87 92//92 93//93
f 87//87 93//93 88//88
f 88//88 93//93 94//94
f 88//88 94//94 89//89
f 89//89 94//94 6//6
f 89//89 6//6 90//90
f 90//90 6//6 5//5
f 90//90 5//5 91//91
f 25//25 26//26 28//28
f 28//28 26//26 95//95
f 28//28 95//95 92//92
f 92//92 95//95 96//96
f 92//92 96//96 93//93
f 93//93 96//96 97//97
f 93//93 97//97 94//94
f 94//94 97//97 98//98
f 94//94 98//98 6//6
f 6//6 98//98 99//99
f 6//6 99//99 4//4
f 23//23 24//24 26//26
f 26//26 24//24 100//100
f 26//26 100//100 95//95
f 95//95 100//100 101//101
f 95//95 101//101 96//96
f 96//96 101//101 102//102
f 96//96 102//102 97//97
f 97//97 102//102 103//103
f 97//97 103//103 98//98
f 98//98 103//103 104//104
f 98//98 104//104 99//99
f 21//21 22//22 24//24
f 24//24 22//22 105//105
f 24//24 105//105 100//100
f 100//100 105//105 106//106
f 100//100 106//106 101//101
f 101//101 106//106 107//107
f 101//101 107//107 102//102
f 102//102 107//107 3//3
f 102//102 3//3 103//103
f 103//103 3//3 2//2
f 103//103 2//2 104//104
f 19//19 20//20 22//22
f 22//22 20//20 108//108
f 22//22 108//108 105//105
f 105//105 108//108 109//109
f 105//105 109//109 106//106
f 106//106 109//109 110//110
f 106//106 110//110 107//107
f 107//107 110//110 111//111
f 107//107 111//111 3//3
f 3//3 111//111 112//112
f 3//3 112//112 1//1
f 16//16 18//18 20//20
f 20//20 18//18 113//113
f 20//20 113//113 108//108
f 108//108 113//113 114//114
f 108//108 114//114 109//109
f 109//109 114//114 115//115
f 109//109 115//115 110//110
f 110//110 115//115 116//116
f 110//110 116//116 111//111
f 111//111 116//116 117//117
f 111//111 117//117 112//112
f 43//43 118//118 119//119
f 19//19 119//119 16//16
f 16//16 119//119 17//17
f 19//19 21//21 119//119
f 119//119 21//21 23//23
f 119//119 23//23 25//25
f 25//25 27//27 119//119
f 119//119 27//27 29//29
f 119//119 29//29 31//31
f 31//31 33//33 119//119
f 119//119 33//33 35//35
f 119//119 35//35 37//37
f 37//37 39//39 119//119
f 119//119 39//39 41//41
f 119//119 41//41 43//43
f 120//120 121//121 122//122
f 120//120 122//122 123//123
f 124//124 123//123 122//122
f 125//125 124//124 122//122
f 126//126 125//125 122//122
f 127//127 126//126 122//122
f 128//128 127//127 122//122
f 128//128 129//129 130//130
f 129//129 131//131 132//132
f 131//131 133//133 134//134
f 135//135 136//136 137//137
f 137//137 136//136 138//138
f 137//137 138//138 133//133
f 136//136 139//139 138//138
f 138//138 139//139 140//140
f 138//138 140//140 141//141
f 142//142 143//143 144//144
f 144//144 143//143 141//141
f 144//144 141//141 145//145
f 145//145 141//141 140//140
f 146//146 147//147 148//148
f 148//148 147//147 143//143
f 148//148 143//143 149//149
f 149//149 143//143 142//142
f 146//146 150//150 147//147
f 147//147 150//150 151//151
f 147//147 151//151 152//152
f 151//151 153//153 152//152
f 152//152 153//153 154//154
f 152//152 154//154 155//155
f 156//156 157//157 158//158
f 158//158 157//157 155//155
f 158//158 155//155 159//159
f 159//159 155//155 154//154
f 133//133 138//138 134//134
f 134//134 138//138 141//141
f 134//134 141//141 160//160
f 160//160 141//141 143//143
f 160//160 143//143 161//161
f 161//161 143//143 147//147
f 161//161 147//147 162//162
f 162//162 147//147 152//152
f 162//162 152//152 163//163
f 163//163 152//152 155//155
f 163//163 155//155 164//164
f 164//164 155//155 157//157
f 164//164 157//157 165//165
f 131//131 134//134 132//132
f 132//132 134//134 160//160
f 132//132 160//160 166//166
f 166//166 160//160 161//161
f 166//166 161//161 167//167
f 167//167 161//161 162//162
f 167//167 162//162 168//168
f 168//168 162//162 163//163
f 168//168 163//163 169//169
f 169//169 163//163 164//164
f 169//169 164//164 170//170
f 170//170 164//164 165//165
f 170//170 165//165 171//171
f 129//129 132//132 130//130
f 130//130 132//132 166//166
f 130//130 166//166 172//172
f 172//172 166//166 167//167
f 172//172 167//167 173//173
f 173//173 167//167 168//168
f 173//173 168//168 174//174
f 174//174 168//168 169//169
f 174//174 169//169 175//175
f 175//175 169//169 170//170
f 175//175 170//170 176//176
f 176//176 170//170 171//171
f 176//176 171//171 177//177
f 128//128 130//130 127//127
f 127//127 130//130 172//172
f 127//127 172//172 126//126
f 126//126 172//172 173//173
f 126//126 173//173 125//125
f 125//125 173//173 174//174
f 125//125 174//174 124//124
f 124//124 174//174 175//175
f 124//124 175//175 123//123
f 123//123 175//175 176//176
f 123//123 176//176 120//120
f 120//120 176//176 177//177
f 120//120 177//177 121//121
f 178//178 179//179 14//14
f 178//178 14//14 136//136
f 136//136 14//14 13//13
f 136//136 13//13 139//139
f 139//139 13//13 60//60
f 139//139 60//60 140//140
f 140//140 60//60 65//65
f 140//140 65//65 145//145
f 145//145 65//65 11//11
f 145//145 11//11 144//144
f 11//11 10//10 144//144
f 144//144 10//10 73//73
f 144//144 73//73 142//142
f 142//142 73//73 78//78
f 142//142 78//78 149//149
f 149//149 78//78 8//8
f 149//149 8//8 148//148
f 148//148 8//8 7//7
f 148//148 7//7 146//146
f 146//146 7//7 86//86
f 146//146 86//86 150//150
f 86//86 91//91 150//150
f 150//150 91//91 5//5
f 150//150 5//5 151//151
f 151//151 5//5 4//4
f 151//151 4//4 153//153
f 153//153 4//4 99//99
f 153//153 99//99 154//154
f 154//154 99//99 104//104
f 154//154 104//104 159//159
f 159//159 104//104 2//2
f 159//159 2//2 158//158
f 117//117 156//156 112//112
f 112//112 156//156 158//158
f 112//112 158//158 1//1
f 1//1 158//158 2//2
f 119//119 180//180 181//181
f 181//181 182//182 119//119
f 119//119 182//182 183//183
f 119//119 183//183 184//184
f 184//184 185//185 119//119
f 119//119 185//185 186//186
f 119//119 186//186 187//187
f 187//187 186//186 188//188
f 189//189 190//190 191//191
f 191//191 190//190 192//192
f 191//191 192//192 188//188
f 188//188 192//192 193//193
f 188//188 193//193 187//187
f 117//117 116//116 119//119
f 119//119 116//116 115//115
f 119//119 115//115 114//114
f 114//114 113//113 119//119
f 119//119 113//113 18//18
f 119//119 18//18 17//17
f 117//117 119//119 156//156
f 156//156 119//119 122//122
f 156//156 122//122 121//121
f 121//121 177//177 156//156
f 156//156 177//177 171//171
f 156//156 171//171 157//157
f 157//157 171//171 165//165
# 348 faces, 0 coords texture

# End of File
